HIERARCHY
ROOT Hips
{
	OFFSET	0.00	0.00	0.00
	CHANNELS 6 Xposition Yposition Zposition Zrotation Xrotation Yrotation
	JOINT LeftUpLeg
	{
		OFFSET	 0.126116	-0.014019	-0.065224
		CHANNELS 3 Zrotation Xrotation Yrotation
		JOINT LeftLeg
		{
			OFFSET	 0.000000	 0.000000	 0.569914
			CHANNELS 3 Zrotation Xrotation Yrotation
			JOINT LeftFoot
			{
				OFFSET	 0.000000	 0.000000	 0.544423
				CHANNELS 3 Zrotation Xrotation Yrotation
				JOINT LeftToeBase
				{
					OFFSET	 0.000000	 0.000000	 0.207117
					CHANNELS 3 Zrotation Xrotation Yrotation
					End Site
					{
						OFFSET	 0.000000	 0.000000	 0.207117
					}
				}
			}
		}
	}
	JOINT RightUpLeg
	{
		OFFSET	-0.124023	-0.008373	-0.065224
		CHANNELS 3 Zrotation Xrotation Yrotation
		JOINT RightLeg
		{
			OFFSET	 0.000000	 0.000000	 0.570047
			CHANNELS 3 Zrotation Xrotation Yrotation
			JOINT RightFoot
			{
				OFFSET	 0.000000	 0.000000	 0.544354
				CHANNELS 3 Zrotation Xrotation Yrotation
				JOINT RightToeBase
				{
					OFFSET	 0.000000	 0.000000	 0.207540
					CHANNELS 3 Zrotation Xrotation Yrotation
					End Site
					{
						OFFSET	 0.000000	 0.000000	 0.207540
					}
				}
			}
		}
	}
	JOINT Spine
	{
		OFFSET	 0.000184	-0.007763	 0.117403
		CHANNELS 3 Zrotation Xrotation Yrotation
		JOINT Spine1
		{
			OFFSET	 0.000000	 0.000000	 0.137269
			CHANNELS 3 Zrotation Xrotation Yrotation
			JOINT Spine2
			{
				OFFSET	 0.000000	 0.000000	 0.156879
				CHANNELS 3 Zrotation Xrotation Yrotation
				JOINT LeftShoulder
				{
					OFFSET	 0.080501	-0.002496	 0.160144
					CHANNELS 3 Zrotation Xrotation Yrotation
					JOINT LeftArm
					{
						OFFSET	 0.000000	 0.000000	 0.164363
						CHANNELS 3 Zrotation Xrotation Yrotation
						JOINT LeftForeArm
						{
							OFFSET	 0.000000	 0.000000	 0.364576
							CHANNELS 3 Zrotation Xrotation Yrotation
							JOINT LeftHand
							{
								OFFSET	 0.000000	 0.000000	 0.360812
								CHANNELS 3 Zrotation Xrotation Yrotation
								JOINT LeftHandIndex1
								{
									OFFSET	 0.000000	 0.000000	 0.086006
									CHANNELS 3 Zrotation Xrotation Yrotation
									JOINT LeftHandIndex2
									{
										OFFSET	 0.000000	 0.000000	 0.047236
										CHANNELS 3 Zrotation Xrotation Yrotation
										JOINT LeftHandIndex3
										{
											OFFSET	-0.004284	-0.000551	 0.038166
											CHANNELS 3 Zrotation Xrotation Yrotation
											End Site
											{
												OFFSET	-0.004284	-0.000551	 0.038166
											}
										}
									}
								}
							}
						}
					}
				}
				JOINT Neck
				{
					OFFSET	 0.000000	 0.000000	 0.176489
					CHANNELS 3 Zrotation Xrotation Yrotation
					JOINT Head
					{
						OFFSET	 0.000000	-0.001747	 0.077940
						CHANNELS 3 Zrotation Xrotation Yrotation
						End Site
						{
							OFFSET	 0.000000	-0.001747	 0.077940
						}
					}
				}
				JOINT RightShoulder
				{
					OFFSET	-0.080363	 0.000306	 0.159706
					CHANNELS 3 Zrotation Xrotation Yrotation
					JOINT RightArm
					{
						OFFSET	 0.000000	 0.000000	 0.164196
						CHANNELS 3 Zrotation Xrotation Yrotation
						JOINT RightForeArm
						{
							OFFSET	 0.000000	 0.000000	 0.365611
							CHANNELS 3 Zrotation Xrotation Yrotation
							JOINT RightHand
							{
								OFFSET	 0.000000	 0.000000	 0.360648
								CHANNELS 3 Zrotation Xrotation Yrotation
								JOINT RightHandIndex1
								{
									OFFSET	 0.000000	 0.000000	 0.069977
									CHANNELS 3 Zrotation Xrotation Yrotation
									JOINT RightHandIndex2
									{
										OFFSET	 0.000000	 0.000000	 0.052305
										CHANNELS 3 Zrotation Xrotation Yrotation
										JOINT RightHandIndex3
										{
											OFFSET	 0.009002	-0.000782	 0.042196
											CHANNELS 3 Zrotation Xrotation Yrotation
											End Site
											{
												OFFSET	 0.009002	-0.000782	 0.042196
											}
										}
									}
								}
							}
						}
					}
				}
			}
		}
	}
}
MOTION
Frames:    13
Frame Time: 0.03333334
-0.060905	-2.284693	 1.242288	 5.144145	-1.213748	-3.434904	 15.367490	-3.614956	-175.109600	 0.942804	-28.192960	 0.278788	 23.850610	 73.781540	-27.104260	-2.369461	 31.605190	-0.069701	-22.237170	-33.036980	-177.514500	 9.843191	-46.139380	 7.685700	 2.121579	 66.108760	 3.861155	 2.358906	 33.009200	 0.103435	 11.867710	 7.721885	 1.402327	 0.216338	 5.686770	 1.835966	-4.696146	-6.817177	-2.590868	-93.969010	 59.016490	 175.316300	 11.691770	 29.429160	-41.962260	 10.203260	-1.748248	-8.255589	 24.615260	-43.440920	 10.355910	-4.868636	 19.259470	-2.787309	-3.882550	 21.459690	 2.203792	-4.807992	 5.548666	 0.146784	-0.067314	-5.084280	 0.190698	-6.450108	 0.109537	 1.980115	 89.768500	 61.662460	 179.967700	-19.794200	 52.887680	 6.983126	-12.940850	-5.453100	 17.057700	-28.943400	-26.944180	-10.945980	 6.291257	 24.616820	-0.536705	 1.918955	 44.428770	-7.022916	 0.580182	 24.039210	 3.541040
-0.065099	-2.366928	 1.236132	 6.273290	 0.038737	-3.753055	 14.270650	-0.505173	-176.120700	 1.356552	-26.954720	 0.455060	 21.978990	 76.391930	-25.231020	-2.366463	 32.094420	-0.080831	-26.096630	-36.083370	 178.959800	 9.796643	-32.612910	 5.734504	-2.708382	 66.354950	 7.377482	 2.360504	 32.771840	 0.097932	 3.952526	 6.823641	 1.303837	 0.177898	 6.011137	 2.224418	-5.446932	-7.155477	-2.932720	-94.302220	 58.974660	 174.611600	 9.228219	 25.290120	-43.572270	 13.118940	-2.995800	-10.679410	 26.019090	-38.498370	 8.373659	-4.852087	 19.672350	-2.812541	-3.858185	 21.770310	 2.179029	-4.795243	 5.698833	 0.137983	-0.011566	-5.158277	 0.292173	-6.962195	 0.055922	 1.800999	 89.605520	 61.861250	 179.575800	-18.890600	 55.057590	 2.227522	-17.552040	-8.542718	 21.254480	-30.340560	-19.740800	-9.176004	 6.249530	 21.890190	-0.597794	 2.200052	 42.025300	-7.271368	 1.159439	 21.429690	 3.260222
-0.070122	-2.443512	 1.225937	 6.582891	 0.714372	-4.255989	 13.853970	 3.073699	-177.124000	 1.536456	-25.954750	 0.518142	 18.375610	 78.999050	-21.427160	-2.358886	 33.246930	-0.107402	-25.768700	-38.608370	 177.171800	 9.439919	-23.331920	 4.075243	-2.632393	 70.217180	 5.953961	 2.352887	 33.866000	 0.123486	-3.204156	 6.090884	 1.559461	 0.156028	 6.763221	 2.354007	-5.954953	-7.451038	-3.136852	-94.476530	 58.870140	 174.257000	 7.096388	 22.746740	-44.824670	 15.203910	-4.292223	-12.618060	 26.089660	-32.160660	 6.612888	-4.826138	 20.209530	-2.822635	-3.824346	 22.197540	 2.144659	-4.770641	 5.987790	 0.120952	 0.022441	-5.275840	 0.342233	-7.372698	-0.011989	 1.694695	 89.448930	 62.028300	 179.194600	-17.304690	 56.291750	-0.892464	-22.355650	-10.351400	 22.096240	-31.363970	-11.900570	-7.681144	 6.196907	 19.094750	-0.707065	 2.526594	 38.941510	-7.555127	 1.762638	 18.592030	 2.991926
-0.078530	-2.534003	 1.209154	 6.997592	 0.740414	-4.497923	 12.991480	 7.499263	-178.881900	 1.956238	-25.713620	 0.695870	 8.938995	 80.269680	-11.776950	-2.322086	 37.714040	-0.215960	-25.214000	-43.992100	 175.503500	 10.209470	-22.877030	 4.308339	-2.203680	 71.177850	 4.458483	 2.336289	 35.963790	 0.173968	-12.176630	 6.155536	 1.644015	 0.132129	 6.851060	 2.506702	-6.441315	-7.576312	-3.373409	-94.537310	 59.006850	 174.105400	 5.036475	 21.695480	-45.621740	 18.289550	-5.932022	-14.573330	 25.164820	-25.344180	 2.834062	-4.855202	 20.533290	-3.086775	-3.781287	 22.734190	 2.100933	-4.719388	 6.585897	 0.085263	 0.129669	-5.424282	 0.328284	-7.654681	 0.062783	 1.295693	 89.357590	 61.866160	 178.979800	-14.844470	 56.906340	-5.284591	-27.256090	-12.822260	 23.540280	-31.192920	-3.042251	-5.867591	 6.170517	 15.615790	-0.607840	 2.913607	 34.822770	-7.883269	 2.472108	 15.105380	 2.710306
-0.088292	-2.626284	 1.197687	 7.365323	 0.393497	-3.689852	 12.228870	 11.930950	 178.222600	 1.913637	-25.577040	 0.674023	-2.760897	 77.730250	 1.108147	-2.200777	 46.776860	-0.474939	-23.537940	-42.785850	 174.831200	 7.582001	-22.485180	 3.208919	-5.096793	 64.871280	 11.127790	 2.340231	 35.495380	 0.162517	-20.383500	 6.186796	 0.889663	-0.114217	 6.368750	 2.346666	-6.821689	-7.153988	-3.496459	-94.472510	 59.323060	 174.191400	 3.971383	 21.576120	-45.040030	 20.534060	-7.387627	-16.012630	 23.885910	-19.093860	-0.714122	-4.888897	 20.682990	-3.329576	-3.756940	 23.034290	 2.076214	-4.651050	 7.375464	 0.037256	 0.237330	-5.477394	 0.252041	-7.778008	 0.249931	 1.321633	 89.354350	 61.489780	 178.986000	-13.218980	 56.784210	-7.317271	-31.306800	-13.670600	 23.103060	-30.519840	 4.133315	-3.969176	 6.246363	 12.578590	-0.097460	 3.099899	 32.638860	-8.037458	 3.023916	 12.290700	 2.518392
-0.100561	-2.739352	 1.190130	 8.879135	-0.748849	-2.277121	 12.206040	 15.416620	 173.551900	-0.162371	-28.643460	-0.246917	-5.756805	 67.063110	 9.385302	-1.822433	 59.995560	-1.039694	-20.988110	-38.669280	 175.256200	 6.701259	-26.956780	 3.396636	-11.494200	 56.531800	 23.337680	 2.335761	 36.025810	 0.175482	-29.577290	 6.566604	-0.448386	-0.655884	 5.788364	 2.140739	-7.367770	-6.399040	-3.717473	-94.365730	 59.074660	 174.460600	 4.369202	 21.403390	-43.661400	 22.443210	-8.942352	-17.328670	 22.629200	-10.116900	-4.462559	-4.883832	 20.992300	-3.403221	-3.723817	 23.438670	 2.042590	-4.555556	 8.463451	-0.030614	 0.382575	-5.394346	 0.284232	-7.977160	 0.725658	 1.724706	 89.174030	 61.330430	 178.566800	-11.970350	 56.245800	-7.306325	-34.515540	-13.586530	 22.002480	-29.225280	 10.537430	-0.617374	 6.349966	 9.523641	 0.416549	 3.333833	 29.691600	-8.227013	 3.489531	 9.853024	 2.375976
-0.113628	-2.837617	 1.190013	 10.313400	-1.426110	-0.784875	 13.546680	 11.251820	 168.444900	 1.542997	-41.202440	 0.784125	-4.129131	 51.258300	 14.899490	-1.162266	 69.703960	-1.829334	-24.015300	-35.455630	 173.753500	 7.687420	-32.289450	 4.534948	-9.056741	 53.644920	 20.998380	 2.357499	 33.215730	 0.108244	-35.317590	 6.626648	-1.479763	-0.731129	 5.227824	 1.822516	-7.932158	-5.655869	-3.835356	-94.182460	 59.585720	 174.775600	 6.188424	 22.537370	-42.567490	 24.977010	-10.083890	-18.165310	 22.193160	-3.701011	-7.817607	-4.798517	 21.330420	-3.007807	-3.656137	 24.251600	 1.973910	-4.490668	 9.192595	-0.077242	 0.378560	-5.351224	 0.212035	-8.338642	 1.215946	 1.808391	 89.010610	 60.601260	 178.226300	-11.256000	 55.351560	-7.055579	-34.970650	-13.864550	 21.921790	-26.532210	 13.780440	 2.240941	 6.382594	 8.724616	 0.555583	 3.388709	 28.965520	-8.270745	 3.661103	 8.941755	 2.328168
-0.125215	-2.935460	 1.196094	 9.176539	-2.027623	 0.609406	 20.891230	 2.888252	 161.650900	 0.248129	-55.005490	-0.085678	 4.586860	 39.486400	 14.166660	-2.330223	 36.845920	-0.194098	-24.184900	-31.040440	 173.022600	 6.193849	-36.120520	 4.111131	-6.067058	 56.667140	 18.453530	 2.373210	 30.688790	 0.050561	-37.256980	 7.007599	-2.562335	-0.215493	 4.248210	 2.146509	-8.110127	-4.834480	-4.301866	-94.050220	 59.776440	 175.034400	 8.142169	 24.657750	-41.053400	 27.546100	-10.900340	-18.704050	 20.608300	-0.166022	-8.693797	-4.740215	 21.798700	-2.804914	-3.583629	 25.102840	 1.900376	-4.430038	 9.866428	-0.121177	 0.279211	-5.405060	 0.176214	-8.776918	 1.375577	 1.980172	 89.082500	 60.264730	 178.409100	-11.502740	 54.782560	-7.352571	-33.667550	-17.782660	 25.950800	-22.912240	 14.229070	 3.530861	 6.406248	 10.031790	 0.644072	 3.297385	 30.166620	-8.197801	 3.573171	 9.409586	 2.352351
-0.132401	-3.043156	 1.210234	 6.828281	-2.988508	 1.357762	 24.630410	-8.231604	 160.011900	-7.847766	-70.135620	-7.718606	 10.359630	 44.779260	 4.562284	-2.381165	 29.454360	-0.021795	-22.474260	-25.287120	 173.417600	 5.540795	-38.403810	 3.922466	-5.771049	 63.224330	 17.664600	 2.374317	 30.485960	 0.046040	-36.297090	 7.776802	-3.194597	 0.653122	 4.180595	 2.463816	-8.070257	-4.363283	-4.529613	-93.945720	 59.474020	 175.304500	 10.296970	 27.231620	-39.772420	 29.392700	-11.330910	-18.969710	 16.214930	-0.572310	-7.510128	-4.633418	 23.242170	-2.600208	-3.496340	 26.101610	 1.811872	-4.300665	 11.280270	-0.216035	 0.130314	-5.306642	 0.068527	-9.243487	 1.325245	 1.907404	 89.402220	 60.251690	 179.136600	-13.135640	 52.320030	-0.771128	-31.852030	-18.666730	 27.222750	-17.637850	 10.924300	 2.867088	 6.383345	 13.129080	 0.521772	 3.026726	 33.513180	-7.977221	 3.177111	 11.494620	 2.469520
-0.135155	-3.141958	 1.225662	 5.414927	-3.592447	 1.184785	 23.535740	-15.968500	 165.003700	-8.623593	-75.475280	-8.693873	 11.058280	 49.494890	-1.772629	-2.379203	 29.846450	-0.030416	-21.211990	-19.159720	 175.016000	 4.022460	-37.377420	 2.906255	-4.296262	 67.804180	 16.165820	 2.374306	 30.488000	 0.046083	-33.206960	 8.281924	-3.077962	 1.504318	 4.290387	 2.480130	-8.103160	-4.052086	-4.356015	-93.797130	 59.683860	 175.598600	 12.806340	 30.622830	-38.783180	 31.363690	-11.218280	-18.882760	 11.511060	-2.551089	-5.799339	-4.588231	 23.995820	-2.555669	-3.425244	 26.894530	 1.739838	-4.185266	 12.513840	-0.301893	-0.017416	-5.148421	-0.034839	-9.661556	 1.264841	 1.703931	 89.553380	 59.850190	 179.486600	-14.118580	 48.600110	 6.489575	-29.137310	-18.157000	 27.510390	-12.493800	 4.291791	 1.402412	 6.374178	 15.955310	 0.441409	 2.821366	 35.853900	-7.805969	 2.721236	 13.845160	 2.620629
-0.136734	-3.259892	 1.243634	 3.733996	-3.744075	 0.916300	 23.884000	-23.129130	 172.932500	-0.816502	-69.623830	-1.096075	 8.937175	 49.021140	-3.072848	-2.368316	 31.794020	-0.073986	-20.046250	-10.727380	 176.932700	 1.936012	-32.067570	 1.431025	-1.108177	 70.953670	 13.237040	 2.373752	 30.591170	 0.048382	-26.431050	 8.396910	-3.115822	 2.547577	 4.560372	 2.742508	-8.189450	-4.007224	-4.388510	-93.630930	 60.124860	 175.906300	 16.249460	 35.661040	-36.886100	 33.762200	-10.486740	-18.374930	 6.405726	-7.705377	-3.176282	-4.548168	 24.994910	-2.642812	-3.360273	 27.603830	 1.674026	-4.111711	 13.286530	-0.357192	-0.237392	-4.886574	-0.116713	-10.206290	 0.955187	 1.942282	 89.705700	 59.834290	 179.828700	-14.046350	 43.721880	 17.645370	-26.645510	-12.953420	 21.859840	-6.815904	-4.716421	 1.034738	 6.380040	 18.598510	 0.430253	 2.574255	 38.462810	-7.596050	 2.225617	 16.334290	 2.803827
-0.141077	-3.362476	 1.253306	 2.233450	-3.405488	 0.639309	 27.690080	-27.980790	 179.987400	-2.651904	-57.989940	-2.548442	 10.869400	 48.003590	-7.874397	-2.379456	 29.796120	-0.029307	-18.843930	-3.941848	 178.232200	 0.339244	-27.956520	 0.514405	 2.454634	 73.730140	 10.120380	 2.370026	 31.247600	 0.063118	-19.110690	 8.204454	-3.060669	 3.069572	 5.362682	 3.260512	-8.237134	-4.390400	-4.672601	-93.354970	 60.288250	 176.497400	 18.624630	 39.880030	-34.634830	 34.343820	-9.391598	-17.573880	 2.871046	-14.925900	-1.332025	-4.520639	 25.565180	-2.663653	-3.315694	 28.082040	 1.628894	-4.077810	 13.639160	-0.382827	-0.380346	-4.784196	-0.180265	-10.567020	 0.690580	 2.242863	 89.969580	 60.190790	-179.574700	-16.674110	 44.595230	 19.938580	-19.632210	-18.784510	 33.737180	-2.295359	-13.513630	 2.236383	 6.376657	 19.891660	 0.382845	 2.450268	 39.692380	-7.489313	 1.997610	 17.454630	 2.894475
-0.142922	-3.481024	 1.249408	 0.492170	-2.353254	-0.606428	 32.313970	-29.840400	-171.135500	-3.948555	-39.571030	-2.743124	 14.738840	 44.797040	-14.312110	-2.382189	 29.243090	-0.017173	-17.546160	 1.274667	-179.266800	-0.470720	-26.870880	 0.129817	 5.269826	 78.611820	 7.401227	 2.362872	 32.410650	 0.089603	-9.314173	 7.746006	-1.822222	 3.577392	 5.570486	 3.529875	-8.219363	-4.628813	-4.670976	-93.072360	 60.203760	 177.131700	 20.564810	 43.924560	-30.781860	 33.926580	-7.760130	-16.223080	-0.798431	-23.584550	-1.714635	-4.432423	 27.121120	-2.622168	-3.198982	 29.303080	 1.510746	-3.987017	 14.572600	-0.451927	-0.486063	-4.806014	-0.181163	-10.933550	 0.580649	 2.335408	 90.138460	 60.596080	-179.180800	-20.198640	 45.228900	 26.722740	-13.450860	-19.140250	 40.436810	 4.343948	-23.105830	 7.029181	 6.394703	 19.986660	 0.497620	 2.414986	 40.033230	-7.458783	 1.942875	 17.721120	 2.916808
